<svg xmlns="http://www.w3.org/2000/svg" xmlns:xlink="http://www.w3.org/1999/xlink" width="500" zoomAndPan="magnify" viewBox="0 0 375 374.999991" height="500" preserveAspectRatio="xMidYMid meet" version="1.0"><defs><clipPath id="c3a29d28b0"><path d="M 12 128 L 95 128 L 95 212 L 12 212 Z M 12 128 " clip-rule="nonzero"/></clipPath><clipPath id="28b987b799"><path d="M 0 155.75 L 45.25 115.75 L 94.625 171.605469 L 49.375 211.605469 Z M 0 155.75 " clip-rule="nonzero"/></clipPath><clipPath id="6652f03a98"><path d="M 16.246094 143.714844 C 17.863281 140.882812 20.046875 138.027344 22.636719 135.738281 C 25.226562 133.449219 28.109375 131.691406 31.101562 130.453125 C 31.171875 130.433594 31.222656 130.390625 31.292969 130.371094 C 42.703125 125.90625 56.417969 128.628906 65.148438 138.257812 L 94.480469 171.445312 L 49.230469 211.441406 L 19.917969 178.28125 C 11.367188 168.363281 10.253906 154.503906 16.246094 143.714844 Z M 16.246094 143.714844 " clip-rule="nonzero"/></clipPath><clipPath id="570a3d40c3"><path d="M 12 128 L 95 128 L 95 212 L 12 212 Z M 12 128 " clip-rule="nonzero"/></clipPath><clipPath id="6763134872"><path d="M 0 155.75 L 45.515625 115.515625 L 94.691406 171.148438 L 49.175781 211.378906 Z M 0 155.75 " clip-rule="nonzero"/></clipPath><clipPath id="72949b644a"><path d="M 0.00390625 155.753906 L 45.246094 115.757812 L 94.46875 171.445312 L 49.226562 211.4375 Z M 0.00390625 155.753906 " clip-rule="nonzero"/></clipPath><clipPath id="505432c0b5"><path d="M 16.246094 143.71875 C 17.863281 140.886719 20.050781 138.03125 22.636719 135.746094 C 25.226562 133.457031 28.109375 131.699219 31.101562 130.460938 C 31.171875 130.441406 31.21875 130.398438 31.289062 130.378906 C 42.699219 125.914062 56.414062 128.636719 65.140625 138.265625 L 94.46875 171.445312 L 49.226562 211.4375 L 19.917969 178.285156 C 11.367188 168.363281 10.253906 154.507812 16.246094 143.71875 Z M 16.246094 143.71875 " clip-rule="nonzero"/></clipPath><clipPath id="a1178c87ca"><path d="M 29 147 L 64 147 L 64 182 L 29 182 Z M 29 147 " clip-rule="nonzero"/></clipPath><clipPath id="186e3a4c39"><path d="M 24.398438 158.429688 L 42.945312 142.035156 L 63.179688 164.929688 L 44.636719 181.320312 Z M 24.398438 158.429688 " clip-rule="nonzero"/></clipPath><clipPath id="d9b1ff0837"><path d="M 31.058594 153.496094 C 31.71875 152.335938 32.617188 151.164062 33.675781 150.226562 C 34.738281 149.289062 35.921875 148.570312 37.148438 148.0625 C 37.175781 148.054688 37.195312 148.035156 37.226562 148.027344 C 41.902344 146.199219 47.523438 147.3125 51.101562 151.261719 L 63.121094 164.859375 L 44.574219 181.253906 L 32.5625 167.664062 C 29.058594 163.597656 28.601562 157.917969 31.058594 153.496094 Z M 31.058594 153.496094 " clip-rule="nonzero"/></clipPath><clipPath id="a774dcd9ac"><path d="M 29 147 L 64 147 L 64 182 L 29 182 Z M 29 147 " clip-rule="nonzero"/></clipPath><clipPath id="d62a8dd251"><path d="M 24.398438 158.429688 L 42.945312 142.039062 L 63.308594 165.078125 L 44.765625 181.46875 Z M 24.398438 158.429688 " clip-rule="nonzero"/></clipPath><clipPath id="ae09618f9b"><path d="M 24.402344 158.425781 L 42.941406 142.039062 L 63.113281 164.859375 L 44.570312 181.246094 Z M 24.402344 158.425781 " clip-rule="nonzero"/></clipPath><clipPath id="797fedf967"><path d="M 31.058594 153.496094 C 31.71875 152.335938 32.617188 151.167969 33.675781 150.230469 C 34.738281 149.292969 35.917969 148.570312 37.144531 148.0625 C 37.171875 148.054688 37.195312 148.039062 37.222656 148.03125 C 41.898438 146.199219 47.515625 147.316406 51.09375 151.261719 L 63.113281 164.859375 L 44.570312 181.246094 L 32.5625 167.660156 C 29.058594 163.597656 28.601562 157.917969 31.058594 153.496094 Z M 31.058594 153.496094 " clip-rule="nonzero"/></clipPath><clipPath id="a693c187cc"><path d="M 286 128 L 369 128 L 369 212 L 286 212 Z M 286 128 " clip-rule="nonzero"/></clipPath><clipPath id="9f9059aa29"><path d="M 338.898438 115.753906 L 381.605469 158.460938 L 328.890625 211.179688 L 286.183594 168.472656 Z M 338.898438 115.753906 " clip-rule="nonzero"/></clipPath><clipPath id="bbf670288c"><path d="M 351.910156 131.230469 C 354.835938 132.667969 357.820312 134.675781 360.265625 137.121094 C 362.707031 139.5625 364.640625 142.332031 366.0625 145.242188 C 366.085938 145.3125 366.128906 145.359375 366.152344 145.429688 C 371.3125 156.542969 369.4375 170.398438 360.363281 179.707031 L 329.046875 211.023438 L 286.339844 168.316406 L 317.632812 137.023438 C 327.007812 127.878906 340.773438 125.914062 351.910156 131.230469 Z M 351.910156 131.230469 " clip-rule="nonzero"/></clipPath><clipPath id="ef45ac2973"><path d="M 286 128 L 369 128 L 369 212 L 286 212 Z M 286 128 " clip-rule="nonzero"/></clipPath><clipPath id="6667f1c85e"><path d="M 338.898438 115.753906 L 381.855469 158.710938 L 329.355469 211.214844 L 286.398438 168.257812 Z M 338.898438 115.753906 " clip-rule="nonzero"/></clipPath><clipPath id="7e4ab356bf"><path d="M 338.898438 115.757812 L 381.597656 158.460938 L 329.042969 211.011719 L 286.34375 168.3125 Z M 338.898438 115.757812 " clip-rule="nonzero"/></clipPath><clipPath id="34de0012e1"><path d="M 351.90625 131.234375 C 354.832031 132.671875 357.816406 134.679688 360.257812 137.121094 C 362.699219 139.5625 364.632812 142.332031 366.054688 145.242188 C 366.078125 145.3125 366.125 145.359375 366.144531 145.429688 C 371.300781 156.539062 369.429688 170.394531 360.355469 179.699219 L 329.042969 211.011719 L 286.34375 168.3125 L 317.632812 137.023438 C 327.007812 127.878906 340.769531 125.914062 351.90625 131.234375 Z M 351.90625 131.234375 " clip-rule="nonzero"/></clipPath><clipPath id="def4c2611a"><path d="M 317 147 L 352 147 L 352 182 L 317 182 Z M 317 147 " clip-rule="nonzero"/></clipPath><clipPath id="c94d8aa5c4"><path d="M 339.886719 142.167969 L 357.054688 160 L 335.042969 181.1875 L 317.875 163.355469 Z M 339.886719 142.167969 " clip-rule="nonzero"/></clipPath><clipPath id="84f187a05b"><path d="M 345.097656 148.609375 C 346.285156 149.222656 347.492188 150.066406 348.476562 151.085938 C 349.457031 152.109375 350.226562 153.257812 350.789062 154.460938 C 350.796875 154.492188 350.816406 154.507812 350.824219 154.539062 C 352.851562 159.132812 351.976562 164.796875 348.183594 168.539062 L 335.105469 181.128906 L 317.9375 163.292969 L 331.007812 150.714844 C 334.921875 147.039062 340.574219 146.34375 345.097656 148.609375 Z M 345.097656 148.609375 " clip-rule="nonzero"/></clipPath><clipPath id="8cd86b6e08"><path d="M 317 147 L 352 147 L 352 182 L 317 182 Z M 317 147 " clip-rule="nonzero"/></clipPath><clipPath id="230860cf3e"><path d="M 339.886719 142.167969 L 357.050781 159.996094 L 334.898438 181.324219 L 317.734375 163.492188 Z M 339.886719 142.167969 " clip-rule="nonzero"/></clipPath><clipPath id="951cf8a7f1"><path d="M 339.890625 142.167969 L 357.050781 159.996094 L 335.109375 181.117188 L 317.945312 163.289062 Z M 339.890625 142.167969 " clip-rule="nonzero"/></clipPath><clipPath id="5a9bc6f98b"><path d="M 345.097656 148.609375 C 346.285156 149.222656 347.492188 150.066406 348.472656 151.085938 C 349.457031 152.105469 350.226562 153.257812 350.785156 154.460938 C 350.792969 154.488281 350.8125 154.507812 350.820312 154.535156 C 352.847656 159.128906 351.972656 164.792969 348.183594 168.53125 L 335.109375 181.117188 L 317.945312 163.289062 L 331.011719 150.714844 C 334.921875 147.039062 340.578125 146.34375 345.097656 148.609375 Z M 345.097656 148.609375 " clip-rule="nonzero"/></clipPath><clipPath id="52084b503c"><path d="M 28.953125 56.570312 L 353.417969 56.570312 L 353.417969 375 L 28.953125 375 Z M 28.953125 56.570312 " clip-rule="nonzero"/></clipPath><clipPath id="19cc700967"><path d="M 137.167969 65.550781 C 153.746094 60.128906 172.710938 56.570312 191.273438 56.570312 C 209.835938 56.570312 227.695312 59.621094 244.152344 65.042969 C 244.503906 65.214844 244.855469 65.214844 245.203125 65.382812 C 307.015625 87.070312 352.542969 144.34375 353.417969 211.46875 L 353.417969 448.1875 L 28.953125 448.1875 L 28.953125 211.644531 C 29.828125 144.003906 74.65625 86.730469 137.167969 65.550781 Z M 137.167969 65.550781 " clip-rule="nonzero"/></clipPath><clipPath id="02d4cea41b"><path d="M 28.953125 56.570312 L 353.703125 56.570312 L 353.703125 375 L 28.953125 375 Z M 28.953125 56.570312 " clip-rule="nonzero"/></clipPath><clipPath id="118a51fe8f"><path d="M 137.164062 65.550781 C 153.746094 60.128906 172.707031 56.570312 191.269531 56.570312 C 209.828125 56.570312 227.691406 59.621094 244.148438 65.042969 C 244.5 65.214844 244.847656 65.214844 245.199219 65.382812 C 307.007812 87.070312 352.535156 144.339844 353.410156 211.464844 L 353.410156 448.175781 L 28.953125 448.175781 L 28.953125 211.640625 C 29.828125 144 74.652344 86.730469 137.164062 65.550781 Z M 137.164062 65.550781 " clip-rule="nonzero"/></clipPath><clipPath id="94bcf0e01c"><path d="M 173.304688 235.097656 L 193.808594 235.097656 L 193.808594 263.925781 L 173.304688 263.925781 Z M 173.304688 235.097656 " clip-rule="nonzero"/></clipPath><clipPath id="93d8daf8fc"><path d="M 176.507812 235.097656 L 190.601562 235.097656 C 192.371094 235.097656 193.808594 236.53125 193.808594 238.300781 L 193.808594 260.6875 C 193.808594 262.457031 192.371094 263.890625 190.601562 263.890625 L 176.507812 263.890625 C 174.738281 263.890625 173.304688 262.457031 173.304688 260.6875 L 173.304688 238.300781 C 173.304688 236.53125 174.738281 235.097656 176.507812 235.097656 Z M 176.507812 235.097656 " clip-rule="nonzero"/></clipPath><clipPath id="ebf524a965"><path d="M 173.304688 235.101562 L 193.554688 235.101562 L 193.554688 263.597656 L 173.304688 263.597656 Z M 173.304688 235.101562 " clip-rule="nonzero"/></clipPath><clipPath id="8a5dbddd9e"><path d="M 176.507812 235.101562 L 190.597656 235.101562 C 192.367188 235.101562 193.800781 236.535156 193.800781 238.304688 L 193.800781 260.683594 C 193.800781 262.453125 192.367188 263.886719 190.597656 263.886719 L 176.507812 263.886719 C 174.738281 263.886719 173.304688 262.453125 173.304688 260.683594 L 173.304688 238.304688 C 173.304688 236.535156 174.738281 235.101562 176.507812 235.101562 Z M 176.507812 235.101562 " clip-rule="nonzero"/></clipPath><clipPath id="7620f2273d"><path d="M 188.5625 235.097656 L 209.066406 235.097656 L 209.066406 263.925781 L 188.5625 263.925781 Z M 188.5625 235.097656 " clip-rule="nonzero"/></clipPath><clipPath id="234a517e0a"><path d="M 191.5625 235.097656 L 206.066406 235.097656 C 206.863281 235.097656 207.625 235.414062 208.1875 235.976562 C 208.75 236.539062 209.066406 237.300781 209.066406 238.097656 L 209.066406 260.890625 C 209.066406 261.6875 208.75 262.449219 208.1875 263.011719 C 207.625 263.574219 206.863281 263.890625 206.066406 263.890625 L 191.5625 263.890625 C 190.769531 263.890625 190.003906 263.574219 189.441406 263.011719 C 188.878906 262.449219 188.5625 261.6875 188.5625 260.890625 L 188.5625 238.097656 C 188.5625 237.300781 188.878906 236.539062 189.441406 235.976562 C 190.003906 235.414062 190.769531 235.097656 191.5625 235.097656 Z M 191.5625 235.097656 " clip-rule="nonzero"/></clipPath><clipPath id="9dc05f306f"><path d="M 188.5625 235.101562 L 208.8125 235.101562 L 208.8125 263.597656 L 188.5625 263.597656 Z M 188.5625 235.101562 " clip-rule="nonzero"/></clipPath><clipPath id="7c1f8c7c82"><path d="M 191.5625 235.101562 L 206.0625 235.101562 C 206.855469 235.101562 207.621094 235.417969 208.183594 235.980469 C 208.746094 236.542969 209.058594 237.304688 209.058594 238.097656 L 209.058594 260.886719 C 209.058594 261.683594 208.746094 262.445312 208.183594 263.007812 C 207.621094 263.570312 206.855469 263.886719 206.0625 263.886719 L 191.5625 263.886719 C 190.769531 263.886719 190.003906 263.570312 189.441406 263.007812 C 188.878906 262.445312 188.5625 261.683594 188.5625 260.886719 L 188.5625 238.097656 C 188.5625 237.304688 188.878906 236.542969 189.441406 235.980469 C 190.003906 235.417969 190.769531 235.101562 191.5625 235.101562 Z M 191.5625 235.101562 " clip-rule="nonzero"/></clipPath><clipPath id="99e979d7d2"><path d="M 159.25 218.011719 L 223.183594 218.011719 L 223.183594 241.292969 L 159.25 241.292969 Z M 159.25 218.011719 " clip-rule="nonzero"/></clipPath><clipPath id="3415c9e7e4"><path d="M 207.152344 218.011719 C 215.96875 218.011719 223.121094 223.222656 223.121094 229.652344 C 223.121094 236.078125 215.96875 241.292969 207.152344 241.292969 L 175.21875 241.292969 C 166.402344 241.292969 159.25 236.078125 159.25 229.652344 C 159.25 223.222656 166.402344 218.011719 175.21875 218.011719 Z M 207.152344 218.011719 " clip-rule="nonzero"/></clipPath><clipPath id="f957389975"><path d="M 159.261719 218.011719 L 223 218.011719 L 223 241.261719 L 159.261719 241.261719 Z M 159.261719 218.011719 " clip-rule="nonzero"/></clipPath><clipPath id="6a3e5e87dd"><path d="M 207.148438 218.011719 C 215.960938 218.011719 223.109375 223.21875 223.109375 229.648438 C 223.109375 236.074219 215.960938 241.285156 207.148438 241.285156 L 175.222656 241.285156 C 166.410156 241.285156 159.261719 236.074219 159.261719 229.648438 C 159.261719 223.21875 166.410156 218.011719 175.222656 218.011719 Z M 207.148438 218.011719 " clip-rule="nonzero"/></clipPath><clipPath id="312dc16857"><path d="M 58.691406 115.398438 L 165.046875 115.398438 L 165.046875 229.648438 L 58.691406 229.648438 Z M 58.691406 115.398438 " clip-rule="nonzero"/></clipPath><clipPath id="e5b1018a13"><path d="M 129.574219 226.574219 C 124.140625 228.429688 117.925781 229.648438 111.839844 229.648438 C 105.757812 229.648438 99.902344 228.605469 94.507812 226.75 C 94.390625 226.691406 94.277344 226.691406 94.164062 226.632812 C 73.902344 219.21875 58.976562 199.632812 58.691406 177.121094 L 58.691406 115.75 L 165.046875 115.75 L 165.046875 177.074219 C 164.761719 199.746094 150.066406 219.332031 129.574219 226.574219 Z M 129.574219 226.574219 " clip-rule="nonzero"/></clipPath><clipPath id="dfaf19cddf"><path d="M 64.417969 121.558594 L 159.332031 121.558594 L 159.332031 223.515625 L 64.417969 223.515625 Z M 64.417969 121.558594 " clip-rule="nonzero"/></clipPath><clipPath id="5797b3ba6d"><path d="M 127.675781 220.777344 C 122.824219 222.429688 117.277344 223.515625 111.847656 223.515625 C 106.417969 223.515625 101.195312 222.585938 96.378906 220.929688 C 96.277344 220.878906 96.175781 220.878906 96.070312 220.828125 C 77.992188 214.207031 64.671875 196.730469 64.417969 176.640625 L 64.417969 121.871094 L 159.332031 121.871094 L 159.332031 176.601562 C 159.074219 196.832031 145.960938 214.3125 127.675781 220.777344 Z M 127.675781 220.777344 " clip-rule="nonzero"/></clipPath><clipPath id="7219fd76fd"><path d="M 68.664062 130.433594 L 155.089844 130.433594 L 155.089844 216.859375 L 68.664062 216.859375 Z M 68.664062 130.433594 " clip-rule="nonzero"/></clipPath><clipPath id="be9d71f6e2"><path d="M 111.878906 130.433594 C 88.011719 130.433594 68.664062 149.78125 68.664062 173.648438 C 68.664062 197.511719 88.011719 216.859375 111.878906 216.859375 C 135.742188 216.859375 155.089844 197.511719 155.089844 173.648438 C 155.089844 149.78125 135.742188 130.433594 111.878906 130.433594 Z M 111.878906 130.433594 " clip-rule="nonzero"/></clipPath><clipPath id="945b9316fe"><path d="M 71.539062 133.308594 L 152.214844 133.308594 L 152.214844 213.984375 L 71.539062 213.984375 Z M 71.539062 133.308594 " clip-rule="nonzero"/></clipPath><clipPath id="0669a1bed3"><path d="M 111.878906 133.308594 C 89.597656 133.308594 71.539062 151.371094 71.539062 173.648438 C 71.539062 195.925781 89.597656 213.984375 111.878906 213.984375 C 134.15625 213.984375 152.214844 195.925781 152.214844 173.648438 C 152.214844 151.371094 134.15625 133.308594 111.878906 133.308594 Z M 111.878906 133.308594 " clip-rule="nonzero"/></clipPath><clipPath id="916c728216"><path d="M 86.628906 177.578125 L 113.421875 177.578125 L 113.421875 204.371094 L 86.628906 204.371094 Z M 86.628906 177.578125 " clip-rule="nonzero"/></clipPath><clipPath id="dec4d60854"><path d="M 100.023438 177.578125 C 92.625 177.578125 86.628906 183.574219 86.628906 190.976562 C 86.628906 198.375 92.625 204.371094 100.023438 204.371094 C 107.425781 204.371094 113.421875 198.375 113.421875 190.976562 C 113.421875 183.574219 107.425781 177.578125 100.023438 177.578125 Z M 100.023438 177.578125 " clip-rule="nonzero"/></clipPath><clipPath id="7d78e24c31"><path d="M 100.023438 190.976562 L 108.417969 190.976562 L 108.417969 199.367188 L 100.023438 199.367188 Z M 100.023438 190.976562 " clip-rule="nonzero"/></clipPath><clipPath id="e1a08d477d"><path d="M 104.222656 190.976562 C 101.90625 190.976562 100.023438 192.855469 100.023438 195.171875 C 100.023438 197.488281 101.90625 199.367188 104.222656 199.367188 C 106.539062 199.367188 108.417969 197.488281 108.417969 195.171875 C 108.417969 192.855469 106.539062 190.976562 104.222656 190.976562 Z M 104.222656 190.976562 " clip-rule="nonzero"/></clipPath><clipPath id="295c92fc9a"><path d="M 217.308594 115.398438 L 323.664062 115.398438 L 323.664062 229.648438 L 217.308594 229.648438 Z M 217.308594 115.398438 " clip-rule="nonzero"/></clipPath><clipPath id="c7f2a6e958"><path d="M 288.191406 226.574219 C 282.757812 228.429688 276.542969 229.648438 270.457031 229.648438 C 264.375 229.648438 258.519531 228.605469 253.125 226.75 C 253.007812 226.691406 252.894531 226.691406 252.777344 226.632812 C 232.519531 219.21875 217.59375 199.632812 217.308594 177.121094 L 217.308594 115.75 L 323.664062 115.75 L 323.664062 177.074219 C 323.375 199.746094 308.683594 219.332031 288.191406 226.574219 Z M 288.191406 226.574219 " clip-rule="nonzero"/></clipPath><clipPath id="1cbc66528b"><path d="M 222.914062 121.4375 L 318.0625 121.4375 L 318.0625 223.648438 L 222.914062 223.648438 Z M 222.914062 121.4375 " clip-rule="nonzero"/></clipPath><clipPath id="901f20a168"><path d="M 286.332031 220.902344 C 281.46875 222.558594 275.90625 223.648438 270.464844 223.648438 C 265.019531 223.648438 259.785156 222.714844 254.957031 221.054688 C 254.855469 221.003906 254.75 221.003906 254.648438 220.953125 C 236.523438 214.316406 223.171875 196.796875 222.914062 176.65625 L 222.914062 121.75 L 318.0625 121.75 L 318.0625 176.617188 C 317.808594 196.898438 304.660156 214.421875 286.332031 220.902344 Z M 286.332031 220.902344 " clip-rule="nonzero"/></clipPath><clipPath id="d534c296d1"><path d="M 227.28125 130.433594 L 313.707031 130.433594 L 313.707031 216.859375 L 227.28125 216.859375 Z M 227.28125 130.433594 " clip-rule="nonzero"/></clipPath><clipPath id="9df9c9a945"><path d="M 270.492188 130.433594 C 246.628906 130.433594 227.28125 149.78125 227.28125 173.648438 C 227.28125 197.511719 246.628906 216.859375 270.492188 216.859375 C 294.359375 216.859375 313.707031 197.511719 313.707031 173.648438 C 313.707031 149.78125 294.359375 130.433594 270.492188 130.433594 Z M 270.492188 130.433594 " clip-rule="nonzero"/></clipPath><clipPath id="96ba10046c"><path d="M 230.15625 133.308594 L 310.832031 133.308594 L 310.832031 213.984375 L 230.15625 213.984375 Z M 230.15625 133.308594 " clip-rule="nonzero"/></clipPath><clipPath id="7355c1564c"><path d="M 270.492188 133.308594 C 248.214844 133.308594 230.15625 151.371094 230.15625 173.648438 C 230.15625 195.925781 248.214844 213.984375 270.492188 213.984375 C 292.773438 213.984375 310.832031 195.925781 310.832031 173.648438 C 310.832031 151.371094 292.773438 133.308594 270.492188 133.308594 Z M 270.492188 133.308594 " clip-rule="nonzero"/></clipPath><clipPath id="5c5d405c26"><path d="M 272.742188 166.546875 L 299.539062 166.546875 L 299.539062 193.339844 L 272.742188 193.339844 Z M 272.742188 166.546875 " clip-rule="nonzero"/></clipPath><clipPath id="a4859c12fd"><path d="M 286.140625 166.546875 C 278.742188 166.546875 272.742188 172.542969 272.742188 179.941406 C 272.742188 187.34375 278.742188 193.339844 286.140625 193.339844 C 293.539062 193.339844 299.539062 187.34375 299.539062 179.941406 C 299.539062 172.542969 293.539062 166.546875 286.140625 166.546875 Z M 286.140625 166.546875 " clip-rule="nonzero"/></clipPath><clipPath id="a2c4da2016"><path d="M 286.339844 174.101562 L 294.734375 174.101562 L 294.734375 182.496094 L 286.339844 182.496094 Z M 286.339844 174.101562 " clip-rule="nonzero"/></clipPath><clipPath id="0664d37941"><path d="M 290.539062 174.101562 C 288.21875 174.101562 286.339844 175.980469 286.339844 178.300781 C 286.339844 180.617188 288.21875 182.496094 290.539062 182.496094 C 292.855469 182.496094 294.734375 180.617188 294.734375 178.300781 C 294.734375 175.980469 292.855469 174.101562 290.539062 174.101562 Z M 290.539062 174.101562 " clip-rule="nonzero"/></clipPath><clipPath id="4d40fa1b94"><path d="M 173.304688 204.171875 L 209.128906 204.171875 L 209.128906 223.8125 L 173.304688 223.8125 Z M 173.304688 204.171875 " clip-rule="nonzero"/></clipPath><clipPath id="48cbf4d273"><path d="M 199.246094 204.171875 C 204.671875 204.171875 209.066406 208.570312 209.066406 213.992188 C 209.066406 219.414062 204.671875 223.8125 199.246094 223.8125 L 183.125 223.8125 C 177.699219 223.8125 173.304688 219.414062 173.304688 213.992188 C 173.304688 208.570312 177.699219 204.171875 183.125 204.171875 Z M 199.246094 204.171875 " clip-rule="nonzero"/></clipPath></defs><g clip-path="url(#c3a29d28b0)"><g clip-path="url(#28b987b799)"><g clip-path="url(#6652f03a98)"><path fill="#81bdc7" d="M 0 155.75 L 45.25 115.75 L 94.46875 171.429688 L 49.21875 211.429688 Z M 0 155.75 " fill-opacity="1" fill-rule="nonzero"/></g></g></g><g clip-path="url(#570a3d40c3)"><g clip-path="url(#6763134872)"><g clip-path="url(#72949b644a)"><g clip-path="url(#505432c0b5)"><path stroke-linecap="butt" transform="matrix(0.561938, -0.496715, 0.496715, 0.561938, 0.00260158, 155.752519)" fill="none" stroke-linejoin="miter" d="M 26.853669 2.322032 C 30.970062 0.920883 35.676894 -0.0000662917 40.278152 0.000566464 C 44.886762 0.000746277 49.318929 0.790351 53.40159 2.195552 C 53.48908 2.238129 53.573851 2.236596 53.661341 2.279174 C 69.002775 7.894505 80.299688 22.72531 80.514749 40.050576 L 80.514329 99.095277 L 0.00229199 99.096504 L -0.00192192 40.096365 C 0.217328 22.633646 11.340204 7.808932 26.853669 2.322032 Z M 26.853669 2.322032 " stroke="#000000" stroke-width="8" stroke-opacity="1" stroke-miterlimit="4"/></g></g></g></g><g clip-path="url(#a1178c87ca)"><g clip-path="url(#186e3a4c39)"><g clip-path="url(#d9b1ff0837)"><path fill="#000000" d="M 24.398438 158.429688 L 42.945312 142.035156 L 63.117188 164.855469 L 44.570312 181.25 Z M 24.398438 158.429688 " fill-opacity="1" fill-rule="nonzero"/></g></g></g><g clip-path="url(#a774dcd9ac)"><g clip-path="url(#d62a8dd251)"><g clip-path="url(#ae09618f9b)"><g clip-path="url(#797fedf967)"><path stroke-linecap="butt" transform="matrix(0.561938, -0.496715, 0.496715, 0.561938, 24.400914, 158.427573)" fill="none" stroke-linejoin="miter" d="M 11.005765 0.952496 C 12.689736 0.376448 14.618649 0.0030094 16.504043 0.00123473 C 18.39334 0.00290946 20.209989 0.322696 21.88375 0.898504 C 21.917965 0.914845 21.955177 0.919932 21.989392 0.936273 C 28.278276 3.235011 32.903325 9.31133 32.993976 16.412359 L 32.994121 40.610262 L -0.000593191 40.606285 L 0.000620832 16.430437 C 0.0875963 9.277876 4.646459 3.200279 11.005765 0.952496 Z M 11.005765 0.952496 " stroke="#000000" stroke-width="8" stroke-opacity="1" stroke-miterlimit="4"/></g></g></g></g><g clip-path="url(#a693c187cc)"><g clip-path="url(#9f9059aa29)"><g clip-path="url(#bbf670288c)"><path fill="#81bdc7" d="M 338.898438 115.753906 L 381.605469 158.460938 L 329.058594 211.011719 L 286.351562 168.304688 Z M 338.898438 115.753906 " fill-opacity="1" fill-rule="nonzero"/></g></g></g><g clip-path="url(#ef45ac2973)"><g clip-path="url(#6667f1c85e)"><g clip-path="url(#7e4ab356bf)"><g clip-path="url(#34de0012e1)"><path stroke-linecap="butt" transform="matrix(0.53033, 0.53033, -0.53033, 0.53033, 338.896799, 115.759204)" fill="none" stroke-linejoin="miter" d="M 26.85556 2.324703 C 30.969302 0.921538 35.675981 0.000825804 40.279542 0.000825804 C 44.883102 0.000825804 49.317251 0.788955 53.401529 2.19212 C 53.489917 2.236315 53.578306 2.236315 53.663011 2.284192 C 68.998391 7.896852 80.297368 22.723998 80.514656 40.051798 L 80.514656 99.095218 L 0.000232455 99.095218 L 0.000232455 40.095992 C 0.21752 22.63561 11.339722 7.808464 26.85556 2.324703 Z M 26.85556 2.324703 " stroke="#000000" stroke-width="8" stroke-opacity="1" stroke-miterlimit="4"/></g></g></g></g><g clip-path="url(#def4c2611a)"><g clip-path="url(#c94d8aa5c4)"><g clip-path="url(#84f187a05b)"><path fill="#000000" d="M 339.886719 142.167969 L 357.054688 160 L 335.109375 181.121094 L 317.945312 163.289062 Z M 339.886719 142.167969 " fill-opacity="1" fill-rule="nonzero"/></g></g></g><g clip-path="url(#8cd86b6e08)"><g clip-path="url(#230860cf3e)"><g clip-path="url(#951cf8a7f1)"><g clip-path="url(#5a9bc6f98b)"><path stroke-linecap="butt" transform="matrix(0.520136, 0.540332, -0.540332, 0.520136, 339.88888, 142.167617)" fill="none" stroke-linejoin="miter" d="M 11.004372 0.953111 C 12.691549 0.379504 14.618173 0.000246725 16.50415 0.00116559 C 18.39374 -0.00166784 20.212244 0.324685 21.884478 0.90062 C 21.917968 0.918399 21.95479 0.917698 21.98828 0.935478 C 28.275647 3.235812 32.907386 9.313811 32.994644 16.410284 L 32.995009 40.607292 L -0.00188327 40.609483 L 0.00178462 16.430816 C 0.0865367 9.275814 4.648886 3.199533 11.004372 0.953111 Z M 11.004372 0.953111 " stroke="#000000" stroke-width="8" stroke-opacity="1" stroke-miterlimit="4"/></g></g></g></g><g clip-path="url(#52084b503c)"><g clip-path="url(#19cc700967)"><path fill="#81bdc7" d="M 28.953125 56.570312 L 353.417969 56.570312 L 353.417969 448.210938 L 28.953125 448.210938 Z M 28.953125 56.570312 " fill-opacity="1" fill-rule="nonzero"/></g></g><g clip-path="url(#02d4cea41b)"><g clip-path="url(#118a51fe8f)"><path stroke-linecap="butt" transform="matrix(0.75, 0, 0, 0.75, 28.953599, 56.571757)" fill="none" stroke-linejoin="miter" d="M 144.280628 11.972033 C 166.390004 4.742866 191.671256 -0.00192611 216.421258 -0.00192611 C 241.166051 -0.00192611 264.983761 4.065782 286.92647 11.29495 C 287.395221 11.524116 287.858762 11.524116 288.327512 11.748075 C 370.738976 40.664743 431.442105 117.024123 432.608772 206.524129 L 432.608772 522.138733 L -0.000631678 522.138733 L -0.000631678 206.758504 C 1.166035 116.570998 60.931664 40.211618 144.280628 11.972033 Z M 144.280628 11.972033 " stroke="#000000" stroke-width="8" stroke-opacity="1" stroke-miterlimit="4"/></g></g><g clip-path="url(#94bcf0e01c)"><g clip-path="url(#93d8daf8fc)"><path fill="#ffffff" d="M 173.304688 235.097656 L 193.808594 235.097656 L 193.808594 263.925781 L 173.304688 263.925781 Z M 173.304688 235.097656 " fill-opacity="1" fill-rule="nonzero"/></g></g><g clip-path="url(#ebf524a965)"><g clip-path="url(#8a5dbddd9e)"><path stroke-linecap="butt" transform="matrix(0.75, 0, 0, 0.75, 173.304999, 235.100435)" fill="none" stroke-linejoin="miter" d="M 4.270419 0.00150338 L 23.056878 0.00150338 C 25.416253 0.00150338 27.327712 1.912962 27.327712 4.272337 L 27.327712 34.110881 C 27.327712 36.470256 25.416253 38.381714 23.056878 38.381714 L 4.270419 38.381714 C 1.911043 38.381714 -0.00041496 36.470256 -0.00041496 34.110881 L -0.00041496 4.272337 C -0.00041496 1.912962 1.911043 0.00150338 4.270419 0.00150338 Z M 4.270419 0.00150338 " stroke="#000000" stroke-width="8" stroke-opacity="1" stroke-miterlimit="4"/></g></g><g clip-path="url(#7620f2273d)"><g clip-path="url(#234a517e0a)"><path fill="#ffffff" d="M 188.5625 235.097656 L 209.066406 235.097656 L 209.066406 263.925781 L 188.5625 263.925781 Z M 188.5625 235.097656 " fill-opacity="1" fill-rule="nonzero"/></g></g><g clip-path="url(#9dc05f306f)"><g clip-path="url(#7c1f8c7c82)"><path stroke-linecap="butt" transform="matrix(0.75, 0, 0, 0.75, 188.564347, 235.100435)" fill="none" stroke-linejoin="miter" d="M 3.997538 0.00150338 L 23.330873 0.00150338 C 24.388165 0.00150338 25.408998 0.423378 26.158998 1.173378 C 26.908998 1.923379 27.325665 2.939004 27.325665 3.996295 L 27.325665 34.381714 C 27.325665 35.444214 26.908998 36.459839 26.158998 37.209839 C 25.408998 37.959839 24.388165 38.381714 23.330873 38.381714 L 3.997538 38.381714 C 2.940247 38.381714 1.919413 37.959839 1.169413 37.209839 C 0.419413 36.459839 -0.00246202 35.444214 -0.00246202 34.381714 L -0.00246202 3.996295 C -0.00246202 2.939004 0.419413 1.923379 1.169413 1.173378 C 1.919413 0.423378 2.940247 0.00150338 3.997538 0.00150338 Z M 3.997538 0.00150338 " stroke="#000000" stroke-width="8" stroke-opacity="1" stroke-miterlimit="4"/></g></g><g clip-path="url(#99e979d7d2)"><g clip-path="url(#3415c9e7e4)"><path fill="#bc9b86" d="M 159.25 218.011719 L 223.09375 218.011719 L 223.09375 241.292969 L 159.25 241.292969 Z M 159.25 218.011719 " fill-opacity="1" fill-rule="nonzero"/></g></g><g clip-path="url(#f957389975)"><g clip-path="url(#6a3e5e87dd)"><path stroke-linecap="butt" transform="matrix(0.75, 0, 0, 0.75, 159.262112, 218.010557)" fill="none" stroke-linejoin="miter" d="M 63.848438 0.00154915 C 75.598438 0.00154915 85.129689 6.944258 85.129689 15.517175 C 85.129689 24.084884 75.598438 31.032801 63.848438 31.032801 L 21.280726 31.032801 C 9.530726 31.032801 -0.000524922 24.084884 -0.000524922 15.517175 C -0.000524922 6.944258 9.530726 0.00154915 21.280726 0.00154915 Z M 63.848438 0.00154915 " stroke="#000000" stroke-width="8" stroke-opacity="1" stroke-miterlimit="4"/></g></g><path stroke-linecap="butt" transform="matrix(-0.75, 0, 0, -0.75, 328.613801, 130.469845)" fill="none" stroke-linejoin="miter" d="M 0.000692361 2.00146 L 84.375698 2.00146 " stroke="#545454" stroke-width="4" stroke-opacity="1" stroke-miterlimit="4"/><path stroke-linecap="butt" transform="matrix(-0.75, 0, 0, -0.75, 116.325846, 131.969845)" fill="none" stroke-linejoin="miter" d="M 0.00217028 2.00146 L 84.371967 2.00146 " stroke="#545454" stroke-width="4" stroke-opacity="1" stroke-miterlimit="4"/><g clip-path="url(#312dc16857)"><g clip-path="url(#e5b1018a13)"><path fill="#545454" d="M 165.046875 229.648438 L 58.691406 229.648438 L 58.691406 115.8125 L 165.046875 115.8125 Z M 165.046875 229.648438 " fill-opacity="1" fill-rule="nonzero"/></g></g><g clip-path="url(#dfaf19cddf)"><g clip-path="url(#5797b3ba6d)"><path fill="#737373" d="M 159.332031 223.515625 L 64.417969 223.515625 L 64.417969 121.929688 L 159.332031 121.929688 Z M 159.332031 223.515625 " fill-opacity="1" fill-rule="nonzero"/></g></g><g clip-path="url(#7219fd76fd)"><g clip-path="url(#be9d71f6e2)"><path fill="#000000" d="M 68.664062 130.433594 L 155.089844 130.433594 L 155.089844 216.859375 L 68.664062 216.859375 Z M 68.664062 130.433594 " fill-opacity="1" fill-rule="nonzero"/></g></g><g clip-path="url(#945b9316fe)"><g clip-path="url(#0669a1bed3)"><path fill="#ffffff" d="M 71.539062 133.308594 L 152.214844 133.308594 L 152.214844 213.984375 L 71.539062 213.984375 Z M 71.539062 133.308594 " fill-opacity="1" fill-rule="nonzero"/></g></g><g clip-path="url(#916c728216)"><g clip-path="url(#dec4d60854)"><path fill="#000000" d="M 86.628906 177.578125 L 113.421875 177.578125 L 113.421875 204.371094 L 86.628906 204.371094 Z M 86.628906 177.578125 " fill-opacity="1" fill-rule="nonzero"/></g></g><g clip-path="url(#7d78e24c31)"><g clip-path="url(#e1a08d477d)"><path fill="#ffffff" d="M 100.023438 190.976562 L 108.417969 190.976562 L 108.417969 199.367188 L 100.023438 199.367188 Z M 100.023438 190.976562 " fill-opacity="1" fill-rule="nonzero"/></g></g><g clip-path="url(#295c92fc9a)"><g clip-path="url(#c7f2a6e958)"><path fill="#545454" d="M 323.664062 229.648438 L 217.308594 229.648438 L 217.308594 115.8125 L 323.664062 115.8125 Z M 323.664062 229.648438 " fill-opacity="1" fill-rule="nonzero"/></g></g><g clip-path="url(#1cbc66528b)"><g clip-path="url(#901f20a168)"><path fill="#737373" d="M 318.0625 223.648438 L 222.914062 223.648438 L 222.914062 121.808594 L 318.0625 121.808594 Z M 318.0625 223.648438 " fill-opacity="1" fill-rule="nonzero"/></g></g><g clip-path="url(#d534c296d1)"><g clip-path="url(#9df9c9a945)"><path fill="#000000" d="M 227.28125 130.433594 L 313.707031 130.433594 L 313.707031 216.859375 L 227.28125 216.859375 Z M 227.28125 130.433594 " fill-opacity="1" fill-rule="nonzero"/></g></g><g clip-path="url(#96ba10046c)"><g clip-path="url(#7355c1564c)"><path fill="#ffffff" d="M 230.15625 133.308594 L 310.832031 133.308594 L 310.832031 213.984375 L 230.15625 213.984375 Z M 230.15625 133.308594 " fill-opacity="1" fill-rule="nonzero"/></g></g><g clip-path="url(#5c5d405c26)"><g clip-path="url(#a4859c12fd)"><path fill="#000000" d="M 272.742188 166.546875 L 299.539062 166.546875 L 299.539062 193.339844 L 272.742188 193.339844 Z M 272.742188 166.546875 " fill-opacity="1" fill-rule="nonzero"/></g></g><g clip-path="url(#a2c4da2016)"><g clip-path="url(#0664d37941)"><path fill="#ffffff" d="M 286.339844 174.101562 L 294.734375 174.101562 L 294.734375 182.496094 L 286.339844 182.496094 Z M 286.339844 174.101562 " fill-opacity="1" fill-rule="nonzero"/></g></g><g clip-path="url(#4d40fa1b94)"><g clip-path="url(#48cbf4d273)"><path fill="#000000" d="M 173.304688 204.171875 L 209.050781 204.171875 L 209.050781 223.8125 L 173.304688 223.8125 Z M 173.304688 204.171875 " fill-opacity="1" fill-rule="nonzero"/></g></g><path stroke-linecap="butt" transform="matrix(0.75, 0, 0, 0.75, 141.709697, 196.313819)" fill="none" stroke-linejoin="miter" d="M 0.00165427 25.930535 L 24.428739 25.930535 C 27.470406 25.930535 30.387073 24.722201 32.538115 22.571159 C 34.683948 20.420118 35.892282 17.503451 35.892282 14.466992 C 35.892282 11.425325 37.100615 8.508658 39.251657 6.357617 C 41.402699 4.206575 44.319366 2.998241 47.355824 2.998241 L 85.017285 2.998241 C 90.699577 2.998241 95.303744 7.602408 95.303744 13.2847 C 95.303744 18.966992 99.907911 23.571159 105.590203 23.571159 L 128.819371 23.571159 " stroke="#545454" stroke-width="6" stroke-opacity="1" stroke-miterlimit="4"/></svg>