<svg xmlns="http://www.w3.org/2000/svg" xmlns:xlink="http://www.w3.org/1999/xlink" width="500" zoomAndPan="magnify" viewBox="0 0 375 374.999991" height="500" preserveAspectRatio="xMidYMid meet" version="1.0"><defs><clipPath id="a69ff25913"><path d="M 11.757812 24.820312 L 365.683594 24.820312 L 365.683594 375 L 11.757812 375 Z M 11.757812 24.820312 " clip-rule="nonzero"/></clipPath><clipPath id="4894b96f7b"><path d="M 129.796875 35.039062 C 147.882812 28.871094 168.570312 24.820312 188.816406 24.820312 C 209.0625 24.820312 228.546875 28.292969 246.5 34.460938 C 246.882812 34.65625 247.265625 34.65625 247.644531 34.847656 C 315.070312 59.53125 364.730469 124.707031 365.683594 200.875 L 365.683594 460.421875 L 11.757812 460.421875 L 11.757812 201.066406 C 12.714844 124.320312 61.609375 59.144531 129.796875 35.039062 Z M 129.796875 35.039062 " clip-rule="nonzero"/></clipPath><clipPath id="74aec3b0fb"><path d="M 37.5 57.257812 L 337.5 57.257812 L 337.5 375 L 37.5 375 Z M 37.5 57.257812 " clip-rule="nonzero"/></clipPath><clipPath id="3c313afdad"><path d="M 137.554688 65.917969 C 152.882812 60.6875 170.417969 57.257812 187.582031 57.257812 C 204.742188 57.257812 221.257812 60.199219 236.472656 65.429688 C 236.796875 65.59375 237.121094 65.59375 237.445312 65.753906 C 294.597656 86.675781 336.691406 141.921875 337.5 206.484375 L 337.5 426.488281 L 37.5 426.488281 L 37.5 206.648438 C 38.308594 141.597656 79.753906 86.351562 137.554688 65.917969 Z M 137.554688 65.917969 " clip-rule="nonzero"/></clipPath><clipPath id="8cee22d8c3"><path d="M 55 139 L 117 139 L 117 203 L 55 203 Z M 55 139 " clip-rule="nonzero"/></clipPath><clipPath id="91e4f76f64"><path d="M 45.652344 160.519531 L 79.691406 130.429688 L 116.835938 172.449219 L 82.792969 202.539062 Z M 45.652344 160.519531 " clip-rule="nonzero"/></clipPath><clipPath id="79b229ced8"><path d="M 57.875 151.464844 C 59.089844 149.335938 60.734375 147.1875 62.679688 145.464844 C 64.628906 143.742188 66.796875 142.421875 69.050781 141.488281 C 69.101562 141.472656 69.140625 141.441406 69.191406 141.429688 C 77.777344 138.070312 88.09375 140.117188 94.660156 147.359375 L 116.726562 172.324219 L 82.6875 202.414062 L 60.636719 177.46875 C 54.203125 170.007812 53.363281 159.582031 57.875 151.464844 Z M 57.875 151.464844 " clip-rule="nonzero"/></clipPath><clipPath id="78f9d4bf9d"><path d="M 55 139 L 117 139 L 117 203 L 55 203 Z M 55 139 " clip-rule="nonzero"/></clipPath><clipPath id="3807e1e90c"><path d="M 45.652344 160.519531 L 79.929688 130.21875 L 117.183594 172.363281 L 82.90625 202.664062 Z M 45.652344 160.519531 " clip-rule="nonzero"/></clipPath><clipPath id="2d02409cda"><path d="M 45.652344 160.519531 L 79.6875 130.4375 L 116.710938 172.324219 L 82.679688 202.40625 Z M 45.652344 160.519531 " clip-rule="nonzero"/></clipPath><clipPath id="0ac5db30f7"><path d="M 57.871094 151.46875 C 59.085938 149.339844 60.734375 147.191406 62.679688 145.472656 C 64.625 143.75 66.792969 142.429688 69.046875 141.496094 C 69.097656 141.480469 69.136719 141.449219 69.1875 141.433594 C 77.769531 138.078125 88.085938 140.125 94.648438 147.367188 L 116.710938 172.324219 L 82.679688 202.40625 L 60.632812 177.46875 C 54.203125 170.007812 53.363281 159.582031 57.871094 151.46875 Z M 57.871094 151.46875 " clip-rule="nonzero"/></clipPath><clipPath id="0dd93b2062"><path d="M 67 154 L 94 154 L 94 180 L 67 180 Z M 67 154 " clip-rule="nonzero"/></clipPath><clipPath id="959cf064ac"><path d="M 64.003906 162.535156 L 77.957031 150.199219 L 93.179688 167.421875 L 79.226562 179.753906 Z M 64.003906 162.535156 " clip-rule="nonzero"/></clipPath><clipPath id="b4fab6b4c9"><path d="M 69.015625 158.824219 C 69.511719 157.949219 70.1875 157.070312 70.984375 156.363281 C 71.78125 155.660156 72.671875 155.117188 73.59375 154.734375 C 73.617188 154.726562 73.632812 154.714844 73.652344 154.710938 C 77.171875 153.332031 81.398438 154.171875 84.089844 157.140625 L 93.132812 167.371094 L 79.183594 179.703125 L 70.144531 169.480469 C 67.507812 166.421875 67.164062 162.148438 69.015625 158.824219 Z M 69.015625 158.824219 " clip-rule="nonzero"/></clipPath><clipPath id="c750f0b9c2"><path d="M 67 154 L 94 154 L 94 180 L 67 180 Z M 67 154 " clip-rule="nonzero"/></clipPath><clipPath id="d759866e2b"><path d="M 64.003906 162.535156 L 78.054688 150.117188 L 93.453125 167.535156 L 79.402344 179.953125 Z M 64.003906 162.535156 " clip-rule="nonzero"/></clipPath><clipPath id="3125e5eb60"><path d="M 64.007812 162.535156 L 77.949219 150.210938 L 93.117188 167.371094 L 79.175781 179.695312 Z M 64.007812 162.535156 " clip-rule="nonzero"/></clipPath><clipPath id="a6d13446f9"><path d="M 69.011719 158.828125 C 69.511719 157.953125 70.183594 157.074219 70.980469 156.371094 C 71.78125 155.664062 72.667969 155.125 73.589844 154.742188 C 73.613281 154.734375 73.628906 154.722656 73.648438 154.714844 C 77.164062 153.339844 81.390625 154.179688 84.082031 157.148438 L 93.117188 167.371094 L 79.175781 179.695312 L 70.144531 169.480469 C 67.507812 166.421875 67.167969 162.152344 69.011719 158.828125 Z M 69.011719 158.828125 " clip-rule="nonzero"/></clipPath><clipPath id="51268e1579"><path d="M 261 139 L 324 139 L 324 203 L 261 203 Z M 261 139 " clip-rule="nonzero"/></clipPath><clipPath id="f05f9ec546"><path d="M 300.589844 130.4375 L 332.714844 162.5625 L 293.058594 202.21875 L 260.933594 170.089844 Z M 300.589844 130.4375 " clip-rule="nonzero"/></clipPath><clipPath id="207c2bf8d9"><path d="M 310.375 142.078125 C 312.578125 143.160156 314.824219 144.667969 316.660156 146.507812 C 318.5 148.34375 319.953125 150.429688 321.019531 152.617188 C 321.039062 152.671875 321.074219 152.707031 321.089844 152.757812 C 324.96875 161.117188 323.5625 171.542969 316.734375 178.542969 L 293.175781 202.101562 L 261.046875 169.976562 L 284.589844 146.433594 C 291.644531 139.554688 301.996094 138.078125 310.375 142.078125 Z M 310.375 142.078125 " clip-rule="nonzero"/></clipPath><clipPath id="3b430611f7"><path d="M 261 139 L 324 139 L 324 203 L 261 203 Z M 261 139 " clip-rule="nonzero"/></clipPath><clipPath id="21557ca056"><path d="M 300.589844 130.4375 L 332.9375 162.785156 L 293.164062 202.5625 L 260.8125 170.210938 Z M 300.589844 130.4375 " clip-rule="nonzero"/></clipPath><clipPath id="0463993b73"><path d="M 300.585938 130.4375 L 332.703125 162.554688 L 293.175781 202.085938 L 261.054688 169.96875 Z M 300.585938 130.4375 " clip-rule="nonzero"/></clipPath><clipPath id="61136247b8"><path d="M 310.371094 142.078125 C 312.570312 143.160156 314.816406 144.667969 316.652344 146.503906 C 318.492188 148.34375 319.945312 150.425781 321.011719 152.617188 C 321.03125 152.667969 321.066406 152.703125 321.082031 152.753906 C 324.960938 161.113281 323.554688 171.535156 316.726562 178.53125 L 293.175781 202.085938 L 261.054688 169.96875 L 284.59375 146.433594 C 291.644531 139.554688 301.996094 138.078125 310.371094 142.078125 Z M 310.371094 142.078125 " clip-rule="nonzero"/></clipPath><clipPath id="242d781ebc"><path d="M 284 154 L 311 154 L 311 180 L 284 180 Z M 284 154 " clip-rule="nonzero"/></clipPath><clipPath id="b73cebdf85"><path d="M 301.332031 150.304688 L 314.246094 163.722656 L 297.6875 179.660156 L 284.773438 166.246094 Z M 301.332031 150.304688 " clip-rule="nonzero"/></clipPath><clipPath id="88c131ca6b"><path d="M 305.25 155.152344 C 306.144531 155.613281 307.054688 156.25 307.792969 157.015625 C 308.53125 157.785156 309.109375 158.648438 309.53125 159.554688 C 309.539062 159.578125 309.550781 159.589844 309.558594 159.613281 C 311.082031 163.070312 310.425781 167.328125 307.574219 170.144531 L 297.734375 179.613281 L 284.820312 166.199219 L 294.652344 156.738281 C 297.597656 153.972656 301.851562 153.449219 305.25 155.152344 Z M 305.25 155.152344 " clip-rule="nonzero"/></clipPath><clipPath id="65620a94b4"><path d="M 284 154 L 311 154 L 311 180 L 284 180 Z M 284 154 " clip-rule="nonzero"/></clipPath><clipPath id="3fe06751df"><path d="M 301.332031 150.304688 L 314.335938 163.8125 L 297.585938 179.9375 L 284.582031 166.429688 Z M 301.332031 150.304688 " clip-rule="nonzero"/></clipPath><clipPath id="4bc79b18c6"><path d="M 301.332031 150.308594 L 314.234375 163.714844 L 297.734375 179.597656 L 284.828125 166.191406 Z M 301.332031 150.308594 " clip-rule="nonzero"/></clipPath><clipPath id="429581b3e5"><path d="M 305.246094 155.152344 C 306.140625 155.613281 307.046875 156.25 307.785156 157.015625 C 308.523438 157.78125 309.105469 158.648438 309.523438 159.550781 C 309.53125 159.574219 309.546875 159.585938 309.550781 159.609375 C 311.074219 163.0625 310.417969 167.320312 307.566406 170.136719 L 297.734375 179.597656 L 284.828125 166.191406 L 294.652344 156.734375 C 297.597656 153.972656 301.847656 153.449219 305.246094 155.152344 Z M 305.246094 155.152344 " clip-rule="nonzero"/></clipPath><clipPath id="1214134683"><path d="M 65.460938 85.914062 L 309.539062 85.914062 L 309.539062 375 L 65.460938 375 Z M 65.460938 85.914062 " clip-rule="nonzero"/></clipPath><clipPath id="6706b068c2"><path d="M 146.863281 92.667969 C 159.335938 88.589844 173.601562 85.914062 187.566406 85.914062 C 201.527344 85.914062 214.964844 88.207031 227.347656 92.285156 C 227.609375 92.414062 227.871094 92.414062 228.136719 92.542969 C 274.632812 108.855469 308.882812 151.9375 309.539062 202.433594 L 309.539062 380.511719 L 65.460938 380.511719 L 65.460938 202.566406 C 66.117188 151.683594 99.839844 108.601562 146.863281 92.667969 Z M 146.863281 92.667969 " clip-rule="nonzero"/></clipPath><clipPath id="db97a94b2c"><path d="M 65.460938 85.914062 L 309.210938 85.914062 L 309.210938 375 L 65.460938 375 Z M 65.460938 85.914062 " clip-rule="nonzero"/></clipPath><clipPath id="f355e311dc"><path d="M 146.863281 92.667969 C 159.335938 88.589844 173.601562 85.914062 187.5625 85.914062 C 201.527344 85.914062 214.960938 88.207031 227.34375 92.285156 C 227.605469 92.414062 227.871094 92.414062 228.132812 92.542969 C 274.628906 108.855469 308.875 151.9375 309.535156 202.429688 L 309.535156 380.5 L 65.460938 380.5 L 65.460938 202.5625 C 66.121094 151.683594 99.839844 108.601562 146.863281 92.667969 Z M 146.863281 92.667969 " clip-rule="nonzero"/></clipPath><clipPath id="d0afd26e1f"><path d="M 176.019531 220.210938 L 191.445312 220.210938 L 191.445312 241.898438 L 176.019531 241.898438 Z M 176.019531 220.210938 " clip-rule="nonzero"/></clipPath><clipPath id="392cf95e0e"><path d="M 179.222656 220.210938 L 188.242188 220.210938 C 190.007812 220.210938 191.445312 221.644531 191.445312 223.414062 L 191.445312 238.667969 C 191.445312 240.4375 190.007812 241.871094 188.242188 241.871094 L 179.222656 241.871094 C 177.457031 241.871094 176.019531 240.4375 176.019531 238.667969 L 176.019531 223.414062 C 176.019531 221.644531 177.457031 220.210938 179.222656 220.210938 Z M 179.222656 220.210938 " clip-rule="nonzero"/></clipPath><clipPath id="8d406dfdad"><path d="M 176.023438 220.210938 L 191.441406 220.210938 L 191.441406 241.894531 L 176.023438 241.894531 Z M 176.023438 220.210938 " clip-rule="nonzero"/></clipPath><clipPath id="f624254f0e"><path d="M 179.226562 220.210938 L 188.238281 220.210938 C 190.007812 220.210938 191.441406 221.644531 191.441406 223.414062 L 191.441406 238.664062 C 191.441406 240.433594 190.007812 241.867188 188.238281 241.867188 L 179.226562 241.867188 C 177.457031 241.867188 176.023438 240.433594 176.023438 238.664062 L 176.023438 223.414062 C 176.023438 221.644531 177.457031 220.210938 179.226562 220.210938 Z M 179.226562 220.210938 " clip-rule="nonzero"/></clipPath><clipPath id="322fc6fbca"><path d="M 187.441406 220.152344 L 202.921875 220.152344 L 202.921875 241.898438 L 187.441406 241.898438 Z M 187.441406 220.152344 " clip-rule="nonzero"/></clipPath><clipPath id="4be265dea2"><path d="M 190.5 220.210938 L 199.921875 220.210938 C 200.71875 220.210938 201.480469 220.527344 202.042969 221.089844 C 202.605469 221.652344 202.921875 222.414062 202.921875 223.210938 L 202.921875 238.871094 C 202.921875 239.667969 202.605469 240.429688 202.042969 240.992188 C 201.480469 241.554688 200.71875 241.871094 199.921875 241.871094 L 190.5 241.871094 C 189.703125 241.871094 188.941406 241.554688 188.378906 240.992188 C 187.816406 240.429688 187.5 239.667969 187.5 238.871094 L 187.5 223.210938 C 187.5 222.414062 187.816406 221.652344 188.378906 221.089844 C 188.941406 220.527344 189.703125 220.210938 190.5 220.210938 Z M 190.5 220.210938 " clip-rule="nonzero"/></clipPath><clipPath id="ba4fd4642f"><path d="M 187.5 220.210938 L 202.921875 220.210938 L 202.921875 241.894531 L 187.5 241.894531 Z M 187.5 220.210938 " clip-rule="nonzero"/></clipPath><clipPath id="26990ba728"><path d="M 190.5 220.210938 L 199.921875 220.210938 C 200.71875 220.210938 201.480469 220.527344 202.042969 221.089844 C 202.605469 221.652344 202.921875 222.414062 202.921875 223.210938 L 202.921875 238.867188 C 202.921875 239.664062 202.605469 240.425781 202.042969 240.988281 C 201.480469 241.550781 200.71875 241.867188 199.921875 241.867188 L 190.5 241.867188 C 189.703125 241.867188 188.941406 241.550781 188.378906 240.988281 C 187.816406 240.425781 187.5 239.664062 187.5 238.867188 L 187.5 223.210938 C 187.5 222.414062 187.816406 221.652344 188.378906 221.089844 C 188.941406 220.527344 189.703125 220.210938 190.5 220.210938 Z M 190.5 220.210938 " clip-rule="nonzero"/></clipPath><clipPath id="5a542ceaa6"><path d="M 165.449219 207.355469 L 213.542969 207.355469 L 213.542969 224.871094 L 165.449219 224.871094 Z M 165.449219 207.355469 " clip-rule="nonzero"/></clipPath><clipPath id="1b7538981a"><path d="M 201.484375 207.355469 C 208.117188 207.355469 213.496094 211.277344 213.496094 216.113281 C 213.496094 220.949219 208.117188 224.871094 201.484375 224.871094 L 177.460938 224.871094 C 170.828125 224.871094 165.449219 220.949219 165.449219 216.113281 C 165.449219 211.277344 170.828125 207.355469 177.460938 207.355469 Z M 201.484375 207.355469 " clip-rule="nonzero"/></clipPath><clipPath id="e6c3df17c7"><path d="M 165.453125 207.355469 L 213.449219 207.355469 L 213.449219 224.605469 L 165.453125 224.605469 Z M 165.453125 207.355469 " clip-rule="nonzero"/></clipPath><clipPath id="e2a5e5d4fc"><path d="M 201.472656 207.355469 C 208.105469 207.355469 213.480469 211.277344 213.480469 216.109375 C 213.480469 220.945312 208.105469 224.863281 201.472656 224.863281 L 177.460938 224.863281 C 170.828125 224.863281 165.453125 220.945312 165.453125 216.109375 C 165.453125 211.277344 170.828125 207.355469 177.460938 207.355469 Z M 201.472656 207.355469 " clip-rule="nonzero"/></clipPath><clipPath id="39ed06b029"><path d="M 97.304688 141.476562 L 162.320312 141.476562 L 162.320312 206.492188 L 97.304688 206.492188 Z M 97.304688 141.476562 " clip-rule="nonzero"/></clipPath><clipPath id="7214029d97"><path d="M 129.8125 141.476562 C 111.859375 141.476562 97.304688 156.03125 97.304688 173.984375 C 97.304688 191.9375 111.859375 206.492188 129.8125 206.492188 C 147.765625 206.492188 162.320312 191.9375 162.320312 173.984375 C 162.320312 156.03125 147.765625 141.476562 129.8125 141.476562 Z M 129.8125 141.476562 " clip-rule="nonzero"/></clipPath><clipPath id="36cfe11fe9"><path d="M 99.46875 143.640625 L 160.15625 143.640625 L 160.15625 204.328125 L 99.46875 204.328125 Z M 99.46875 143.640625 " clip-rule="nonzero"/></clipPath><clipPath id="94dfc2dc0b"><path d="M 129.8125 143.640625 C 113.054688 143.640625 99.46875 157.226562 99.46875 173.984375 C 99.46875 190.742188 113.054688 204.328125 129.8125 204.328125 C 146.570312 204.328125 160.15625 190.742188 160.15625 173.984375 C 160.15625 157.226562 146.570312 143.640625 129.8125 143.640625 Z M 129.8125 143.640625 " clip-rule="nonzero"/></clipPath><clipPath id="f9b838cd61"><path d="M 110.816406 176.941406 L 130.972656 176.941406 L 130.972656 197.097656 L 110.816406 197.097656 Z M 110.816406 176.941406 " clip-rule="nonzero"/></clipPath><clipPath id="4c246fb016"><path d="M 120.894531 176.941406 C 115.328125 176.941406 110.816406 181.453125 110.816406 187.019531 C 110.816406 192.585938 115.328125 197.097656 120.894531 197.097656 C 126.460938 197.097656 130.972656 192.585938 130.972656 187.019531 C 130.972656 181.453125 126.460938 176.941406 120.894531 176.941406 Z M 120.894531 176.941406 " clip-rule="nonzero"/></clipPath><clipPath id="f25689a2d8"><path d="M 120.894531 187.019531 L 127.210938 187.019531 L 127.210938 193.335938 L 120.894531 193.335938 Z M 120.894531 187.019531 " clip-rule="nonzero"/></clipPath><clipPath id="0f1c7d1a74"><path d="M 124.054688 187.019531 C 122.308594 187.019531 120.894531 188.433594 120.894531 190.175781 C 120.894531 191.921875 122.308594 193.335938 124.054688 193.335938 C 125.796875 193.335938 127.210938 191.921875 127.210938 190.175781 C 127.210938 188.433594 125.796875 187.019531 124.054688 187.019531 Z M 124.054688 187.019531 " clip-rule="nonzero"/></clipPath><clipPath id="2d73a4b9bf"><path d="M 216.625 141.476562 L 281.640625 141.476562 L 281.640625 206.492188 L 216.625 206.492188 Z M 216.625 141.476562 " clip-rule="nonzero"/></clipPath><clipPath id="0a3898cba6"><path d="M 249.132812 141.476562 C 231.179688 141.476562 216.625 156.03125 216.625 173.984375 C 216.625 191.9375 231.179688 206.492188 249.132812 206.492188 C 267.085938 206.492188 281.640625 191.9375 281.640625 173.984375 C 281.640625 156.03125 267.085938 141.476562 249.132812 141.476562 Z M 249.132812 141.476562 " clip-rule="nonzero"/></clipPath><clipPath id="c37b084524"><path d="M 218.789062 143.640625 L 279.476562 143.640625 L 279.476562 204.328125 L 218.789062 204.328125 Z M 218.789062 143.640625 " clip-rule="nonzero"/></clipPath><clipPath id="ef15b2e710"><path d="M 249.132812 143.640625 C 232.375 143.640625 218.789062 157.226562 218.789062 173.984375 C 218.789062 190.742188 232.375 204.328125 249.132812 204.328125 C 265.890625 204.328125 279.476562 190.742188 279.476562 173.984375 C 279.476562 157.226562 265.890625 143.640625 249.132812 143.640625 Z M 249.132812 143.640625 " clip-rule="nonzero"/></clipPath><clipPath id="d0c38595f3"><path d="M 250.824219 168.644531 L 270.980469 168.644531 L 270.980469 188.800781 L 250.824219 188.800781 Z M 250.824219 168.644531 " clip-rule="nonzero"/></clipPath><clipPath id="251a057391"><path d="M 260.902344 168.644531 C 255.335938 168.644531 250.824219 173.15625 250.824219 178.722656 C 250.824219 184.285156 255.335938 188.800781 260.902344 188.800781 C 266.46875 188.800781 270.980469 184.285156 270.980469 178.722656 C 270.980469 173.15625 266.46875 168.644531 260.902344 168.644531 Z M 260.902344 168.644531 " clip-rule="nonzero"/></clipPath><clipPath id="e499158e45"><path d="M 261.054688 174.328125 L 267.367188 174.328125 L 267.367188 180.640625 L 261.054688 180.640625 Z M 261.054688 174.328125 " clip-rule="nonzero"/></clipPath><clipPath id="0cf9ff6b78"><path d="M 264.210938 174.328125 C 262.464844 174.328125 261.054688 175.742188 261.054688 177.484375 C 261.054688 179.230469 262.464844 180.640625 264.210938 180.640625 C 265.953125 180.640625 267.367188 179.230469 267.367188 177.484375 C 267.367188 175.742188 265.953125 174.328125 264.210938 174.328125 Z M 264.210938 174.328125 " clip-rule="nonzero"/></clipPath><clipPath id="4c7b4ff115"><path d="M 176.019531 196.949219 L 202.96875 196.949219 L 202.96875 211.722656 L 176.019531 211.722656 Z M 176.019531 196.949219 " clip-rule="nonzero"/></clipPath><clipPath id="a4ce33288a"><path d="M 195.535156 196.949219 C 199.617188 196.949219 202.921875 200.253906 202.921875 204.335938 C 202.921875 208.414062 199.617188 211.722656 195.535156 211.722656 L 183.40625 211.722656 C 179.328125 211.722656 176.019531 208.414062 176.019531 204.335938 C 176.019531 200.253906 179.328125 196.949219 183.40625 196.949219 Z M 195.535156 196.949219 " clip-rule="nonzero"/></clipPath><clipPath id="b3a619ca25"><path d="M 157.351562 13.425781 L 221.589844 13.425781 L 221.589844 77.664062 L 157.351562 77.664062 Z M 157.351562 13.425781 " clip-rule="nonzero"/></clipPath><clipPath id="e5cf6000a0"><path d="M 174.601562 13.425781 L 204.339844 13.425781 C 208.914062 13.425781 213.304688 15.242188 216.539062 18.476562 C 219.773438 21.714844 221.589844 26.101562 221.589844 30.675781 L 221.589844 60.414062 C 221.589844 64.988281 219.773438 69.375 216.539062 72.609375 C 213.304688 75.847656 208.914062 77.664062 204.339844 77.664062 L 174.601562 77.664062 C 170.027344 77.664062 165.640625 75.847656 162.40625 72.609375 C 159.171875 69.375 157.351562 64.988281 157.351562 60.414062 L 157.351562 30.675781 C 157.351562 26.101562 159.171875 21.714844 162.40625 18.476562 C 165.640625 15.242188 170.027344 13.425781 174.601562 13.425781 Z M 174.601562 13.425781 " clip-rule="nonzero"/></clipPath><clipPath id="094cc320d4"><path d="M 157.351562 13.425781 L 221.851562 13.425781 L 221.851562 77.925781 L 157.351562 77.925781 Z M 157.351562 13.425781 " clip-rule="nonzero"/></clipPath><clipPath id="d8171deed4"><path d="M 174.601562 13.425781 L 204.335938 13.425781 C 208.910156 13.425781 213.296875 15.242188 216.53125 18.476562 C 219.765625 21.710938 221.582031 26.097656 221.582031 30.671875 L 221.582031 60.40625 C 221.582031 64.984375 219.765625 69.371094 216.53125 72.605469 C 213.296875 75.839844 208.910156 77.65625 204.335938 77.65625 L 174.601562 77.65625 C 170.027344 77.65625 165.640625 75.839844 162.40625 72.605469 C 159.171875 69.371094 157.351562 64.984375 157.351562 60.40625 L 157.351562 30.671875 C 157.351562 26.097656 159.171875 21.710938 162.40625 18.476562 C 165.640625 15.242188 170.027344 13.425781 174.601562 13.425781 Z M 174.601562 13.425781 " clip-rule="nonzero"/></clipPath></defs><g clip-path="url(#a69ff25913)"><g clip-path="url(#4894b96f7b)"><path fill="#686666" d="M 11.757812 24.820312 L 365.683594 24.820312 L 365.683594 460.316406 L 11.757812 460.316406 Z M 11.757812 24.820312 " fill-opacity="1" fill-rule="nonzero"/></g></g><g clip-path="url(#74aec3b0fb)"><g clip-path="url(#3c313afdad)"><path fill="#2f2d2d" d="M 37.5 57.257812 L 337.5 57.257812 L 337.5 426.398438 L 37.5 426.398438 Z M 37.5 57.257812 " fill-opacity="1" fill-rule="nonzero"/></g></g><g clip-path="url(#8cee22d8c3)"><g clip-path="url(#91e4f76f64)"><g clip-path="url(#79b229ced8)"><path fill="#81bdc7" d="M 45.652344 160.519531 L 79.691406 130.429688 L 116.71875 172.316406 L 82.675781 202.40625 Z M 45.652344 160.519531 " fill-opacity="1" fill-rule="nonzero"/></g></g></g><g clip-path="url(#78f9d4bf9d)"><g clip-path="url(#3807e1e90c)"><g clip-path="url(#2d02409cda)"><g clip-path="url(#0ac5db30f7)"><path stroke-linecap="butt" transform="matrix(0.561938, -0.496715, 0.496715, 0.561938, 45.653963, 160.520365)" fill="none" stroke-linejoin="miter" d="M 20.197943 1.745737 C 23.291501 0.691722 26.835466 0.0010793 30.296575 0.00185004 C 33.761133 -0.00128157 37.092837 0.594145 40.1689 1.651791 C 40.233429 1.681024 40.300047 1.684299 40.364576 1.713532 C 51.901078 5.93976 60.399694 17.094474 60.560441 30.124434 L 60.562652 74.538793 L 0.00150214 74.539556 L -0.00234628 30.158506 C 0.162753 17.027295 8.530214 5.870302 20.197943 1.745737 Z M 20.197943 1.745737 " stroke="#000000" stroke-width="8" stroke-opacity="1" stroke-miterlimit="4"/></g></g></g></g><g clip-path="url(#0dd93b2062)"><g clip-path="url(#959cf064ac)"><g clip-path="url(#b4fab6b4c9)"><path fill="#000000" d="M 64.003906 162.535156 L 77.957031 150.199219 L 93.128906 167.367188 L 79.179688 179.699219 Z M 64.003906 162.535156 " fill-opacity="1" fill-rule="nonzero"/></g></g></g><g clip-path="url(#c750f0b9c2)"><g clip-path="url(#d759866e2b)"><g clip-path="url(#3125e5eb60)"><g clip-path="url(#a6d13446f9)"><path stroke-linecap="butt" transform="matrix(0.561938, -0.496715, 0.496715, 0.561938, 64.006913, 162.535624)" fill="none" stroke-linejoin="miter" d="M 8.273708 0.715687 C 9.545876 0.283085 10.993196 -0.00164545 12.410169 -0.000389405 C 13.834493 0.000413702 15.196345 0.244905 16.455341 0.676535 C 16.485654 0.689426 16.511611 0.691517 16.538022 0.700959 C 21.264328 2.431798 24.745047 7.003061 24.812217 12.345488 L 24.811254 30.536414 L 0.000890931 30.537395 L -0.00114268 12.357722 C 0.0656568 6.973833 3.496354 2.408467 8.273708 0.715687 Z M 8.273708 0.715687 " stroke="#000000" stroke-width="8" stroke-opacity="1" stroke-miterlimit="4"/></g></g></g></g><g clip-path="url(#51268e1579)"><g clip-path="url(#f05f9ec546)"><g clip-path="url(#207c2bf8d9)"><path fill="#81bdc7" d="M 300.589844 130.4375 L 332.714844 162.5625 L 293.183594 202.09375 L 261.058594 169.964844 Z M 300.589844 130.4375 " fill-opacity="1" fill-rule="nonzero"/></g></g></g><g clip-path="url(#3b430611f7)"><g clip-path="url(#21557ca056)"><g clip-path="url(#0463993b73)"><g clip-path="url(#61136247b8)"><path stroke-linecap="butt" transform="matrix(0.53033, 0.53033, -0.53033, 0.53033, 300.586302, 130.438071)" fill="none" stroke-linejoin="miter" d="M 20.199539 1.749158 C 23.293131 0.695864 26.832348 -0.000194759 30.294225 -0.000194759 C 33.763468 -0.000194759 37.096446 0.592744 40.167941 1.653404 C 40.234232 1.682867 40.300523 1.682867 40.363132 1.716012 C 51.901495 5.940239 60.401508 17.091903 60.559871 30.125502 L 60.563553 74.536967 L -0.000882748 74.54065 L 0.0028001 30.158648 C 0.164845 17.025612 8.532276 5.873948 20.199539 1.749158 Z M 20.199539 1.749158 " stroke="#000000" stroke-width="8" stroke-opacity="1" stroke-miterlimit="4"/></g></g></g></g><g clip-path="url(#242d781ebc)"><g clip-path="url(#b73cebdf85)"><g clip-path="url(#88c131ca6b)"><path fill="#000000" d="M 301.332031 150.304688 L 314.246094 163.722656 L 297.738281 179.609375 L 284.824219 166.195312 Z M 301.332031 150.304688 " fill-opacity="1" fill-rule="nonzero"/></g></g></g><g clip-path="url(#65620a94b4)"><g clip-path="url(#3fe06751df)"><g clip-path="url(#4bc79b18c6)"><g clip-path="url(#429581b3e5)"><path stroke-linecap="butt" transform="matrix(0.520136, 0.540332, -0.540332, 0.520136, 301.330122, 150.308047)" fill="none" stroke-linejoin="miter" d="M 8.274428 0.717815 C 9.544361 0.284761 10.993984 0.0029916 12.412114 0.00176954 C 13.830244 0.000547481 15.201452 0.243331 16.454724 0.67622 C 16.484462 0.690388 16.510167 0.686215 16.536293 0.704135 C 21.262032 2.433795 24.745217 7.001325 24.813825 12.344799 L 24.810355 30.53775 L -0.00178712 30.538779 L -0.00178889 12.356945 C 0.068824 6.973984 3.495934 2.407462 8.274428 0.717815 Z M 8.274428 0.717815 " stroke="#000000" stroke-width="8" stroke-opacity="1" stroke-miterlimit="4"/></g></g></g></g><g clip-path="url(#1214134683)"><g clip-path="url(#6706b068c2)"><path fill="#81bdc7" d="M 65.460938 85.914062 L 309.539062 85.914062 L 309.539062 380.527344 L 65.460938 380.527344 Z M 65.460938 85.914062 " fill-opacity="1" fill-rule="nonzero"/></g></g><g clip-path="url(#db97a94b2c)"><g clip-path="url(#f355e311dc)"><path stroke-linecap="butt" transform="matrix(0.75, 0, 0, 0.75, 65.461853, 85.913534)" fill="none" stroke-linejoin="miter" d="M 108.535252 9.005915 C 125.165462 3.568414 144.186298 0.000705256 162.800884 0.000705256 C 181.420678 0.000705256 199.332139 3.057997 215.842557 8.495498 C 216.191516 8.667373 216.545682 8.667373 216.894641 8.839248 C 278.88944 30.589251 324.550905 88.031967 325.431113 155.354892 L 325.431113 392.782006 L -0.00122067 392.782006 L -0.00122067 155.531975 C 0.878988 87.693425 45.837327 30.250709 108.535252 9.005915 Z M 108.535252 9.005915 " stroke="#000000" stroke-width="8" stroke-opacity="1" stroke-miterlimit="4"/></g></g><g clip-path="url(#d0afd26e1f)"><g clip-path="url(#392cf95e0e)"><path fill="#ffffff" d="M 176.019531 220.210938 L 191.445312 220.210938 L 191.445312 241.898438 L 176.019531 241.898438 Z M 176.019531 220.210938 " fill-opacity="1" fill-rule="nonzero"/></g></g><g clip-path="url(#8d406dfdad)"><g clip-path="url(#f624254f0e)"><path stroke-linecap="butt" transform="matrix(0.75, 0, 0, 0.75, 176.022151, 220.210795)" fill="none" stroke-linejoin="miter" d="M 4.272548 0.000189814 L 16.288173 0.000189814 C 18.647548 0.000189814 20.559007 1.911648 20.559007 4.271023 L 20.559007 24.604357 C 20.559007 26.963732 18.647548 28.87519 16.288173 28.87519 L 4.272548 28.87519 C 1.913173 28.87519 0.00171488 26.963732 0.00171488 24.604357 L 0.00171488 4.271023 C 0.00171488 1.911648 1.913173 0.000189814 4.272548 0.000189814 Z M 4.272548 0.000189814 " stroke="#000000" stroke-width="8" stroke-opacity="1" stroke-miterlimit="4"/></g></g><g clip-path="url(#322fc6fbca)"><g clip-path="url(#4be265dea2)"><path fill="#ffffff" d="M 187.5 220.210938 L 202.921875 220.210938 L 202.921875 241.898438 L 187.5 241.898438 Z M 187.5 220.210938 " fill-opacity="1" fill-rule="nonzero"/></g></g><g clip-path="url(#ba4fd4642f)"><g clip-path="url(#26990ba728)"><path stroke-linecap="butt" transform="matrix(0.75, 0, 0, 0.75, 187.501135, 220.210795)" fill="none" stroke-linejoin="miter" d="M 3.998487 0.000189814 L 16.560987 0.000189814 C 17.623487 0.000189814 18.639112 0.422065 19.389112 1.172065 C 20.139112 1.922065 20.560987 2.93769 20.560987 4.00019 L 20.560987 24.87519 C 20.560987 25.93769 20.139112 26.953315 19.389112 27.703315 C 18.639112 28.453315 17.623487 28.87519 16.560987 28.87519 L 3.998487 28.87519 C 2.935987 28.87519 1.920362 28.453315 1.170362 27.703315 C 0.420362 26.953315 -0.00151278 25.93769 -0.00151278 24.87519 L -0.00151278 4.00019 C -0.00151278 2.93769 0.420362 1.922065 1.170362 1.172065 C 1.920362 0.422065 2.935987 0.000189814 3.998487 0.000189814 Z M 3.998487 0.000189814 " stroke="#000000" stroke-width="8" stroke-opacity="1" stroke-miterlimit="4"/></g></g><g clip-path="url(#5a542ceaa6)"><g clip-path="url(#1b7538981a)"><path fill="#bc9b86" d="M 165.449219 207.355469 L 213.472656 207.355469 L 213.472656 224.871094 L 165.449219 224.871094 Z M 165.449219 207.355469 " fill-opacity="1" fill-rule="nonzero"/></g></g><g clip-path="url(#e6c3df17c7)"><g clip-path="url(#e2a5e5d4fc)"><path stroke-linecap="butt" transform="matrix(0.75, 0, 0, 0.75, 165.452132, 207.35738)" fill="none" stroke-linejoin="miter" d="M 48.027369 -0.00254831 C 56.871119 -0.00254831 64.037786 5.226619 64.037786 11.669327 C 64.037786 18.117245 56.871119 23.341203 48.027369 23.341203 L 16.011742 23.341203 C 7.167991 23.341203 0.00132395 18.117245 0.00132395 11.669327 C 0.00132395 5.226619 7.167991 -0.00254831 16.011742 -0.00254831 Z M 48.027369 -0.00254831 " stroke="#000000" stroke-width="8" stroke-opacity="1" stroke-miterlimit="4"/></g></g><g clip-path="url(#39ed06b029)"><g clip-path="url(#7214029d97)"><path fill="#000000" d="M 97.304688 141.476562 L 162.320312 141.476562 L 162.320312 206.492188 L 97.304688 206.492188 Z M 97.304688 141.476562 " fill-opacity="1" fill-rule="nonzero"/></g></g><g clip-path="url(#36cfe11fe9)"><g clip-path="url(#94dfc2dc0b)"><path fill="#ffffff" d="M 99.46875 143.640625 L 160.15625 143.640625 L 160.15625 204.328125 L 99.46875 204.328125 Z M 99.46875 143.640625 " fill-opacity="1" fill-rule="nonzero"/></g></g><g clip-path="url(#f9b838cd61)"><g clip-path="url(#4c246fb016)"><path fill="#000000" d="M 110.816406 176.941406 L 130.972656 176.941406 L 130.972656 197.097656 L 110.816406 197.097656 Z M 110.816406 176.941406 " fill-opacity="1" fill-rule="nonzero"/></g></g><g clip-path="url(#f25689a2d8)"><g clip-path="url(#0f1c7d1a74)"><path fill="#ffffff" d="M 120.894531 187.019531 L 127.210938 187.019531 L 127.210938 193.335938 L 120.894531 193.335938 Z M 120.894531 187.019531 " fill-opacity="1" fill-rule="nonzero"/></g></g><g clip-path="url(#2d73a4b9bf)"><g clip-path="url(#0a3898cba6)"><path fill="#000000" d="M 216.625 141.476562 L 281.640625 141.476562 L 281.640625 206.492188 L 216.625 206.492188 Z M 216.625 141.476562 " fill-opacity="1" fill-rule="nonzero"/></g></g><g clip-path="url(#c37b084524)"><g clip-path="url(#ef15b2e710)"><path fill="#ffffff" d="M 218.789062 143.640625 L 279.476562 143.640625 L 279.476562 204.328125 L 218.789062 204.328125 Z M 218.789062 143.640625 " fill-opacity="1" fill-rule="nonzero"/></g></g><g clip-path="url(#d0c38595f3)"><g clip-path="url(#251a057391)"><path fill="#000000" d="M 250.824219 168.644531 L 270.980469 168.644531 L 270.980469 188.800781 L 250.824219 188.800781 Z M 250.824219 168.644531 " fill-opacity="1" fill-rule="nonzero"/></g></g><g clip-path="url(#e499158e45)"><g clip-path="url(#0cf9ff6b78)"><path fill="#ffffff" d="M 261.054688 174.328125 L 267.367188 174.328125 L 267.367188 180.640625 L 261.054688 180.640625 Z M 261.054688 174.328125 " fill-opacity="1" fill-rule="nonzero"/></g></g><g clip-path="url(#4c7b4ff115)"><g clip-path="url(#a4ce33288a)"><path fill="#000000" d="M 176.019531 196.949219 L 202.910156 196.949219 L 202.910156 211.71875 L 176.019531 211.71875 Z M 176.019531 196.949219 " fill-opacity="1" fill-rule="nonzero"/></g></g><g clip-path="url(#b3a619ca25)"><g clip-path="url(#e5cf6000a0)"><path fill="#fecf42" d="M 157.351562 13.425781 L 221.589844 13.425781 L 221.589844 77.664062 L 157.351562 77.664062 Z M 157.351562 13.425781 " fill-opacity="1" fill-rule="nonzero"/></g></g><g clip-path="url(#094cc320d4)"><g clip-path="url(#d8171deed4)"><path stroke-linecap="butt" transform="matrix(0.75, 0, 0, 0.75, 157.35291, 13.425711)" fill="none" stroke-linejoin="miter" d="M 22.998205 0.0000930822 L 62.644041 0.0000930822 C 68.742999 0.0000930822 74.591958 2.421968 78.904458 6.734469 C 83.216959 11.046969 85.638834 16.895928 85.638834 22.994886 L 85.638834 62.640722 C 85.638834 68.744889 83.216959 74.593848 78.904458 78.906348 C 74.591958 83.218849 68.742999 85.640724 62.644041 85.640724 L 22.998205 85.640724 C 16.899246 85.640724 11.050287 83.218849 6.737787 78.906348 C 2.425287 74.593848 -0.00179689 68.744889 -0.00179689 62.640722 L -0.00179689 22.994886 C -0.00179689 16.895928 2.425287 11.046969 6.737787 6.734469 C 11.050287 2.421968 16.899246 0.0000930822 22.998205 0.0000930822 Z M 22.998205 0.0000930822 " stroke="#000000" stroke-width="8" stroke-opacity="1" stroke-miterlimit="4"/></g></g><path stroke-linecap="butt" transform="matrix(0, 0.75, -0.75, 0, 202.921062, 37.501561)" fill="none" stroke-linejoin="miter" d="M -0.00208184 1.998916 L 32.925004 1.998916 " stroke="#000000" stroke-width="4" stroke-opacity="1" stroke-miterlimit="4"/><path stroke-linecap="round" transform="matrix(0, 0.75, -0.75, 0, 202.921062, 37.501561)" fill="none" stroke-linejoin="round" d="M 24.925003 -4.001085 L 32.925004 1.998916 L 24.925003 7.998916 " stroke="#000000" stroke-width="4" stroke-opacity="1" stroke-miterlimit="4"/><path stroke-linecap="butt" transform="matrix(0.528152, 0.5325, -0.5325, 0.528152, 191.948545, 19.820294)" fill="none" stroke-linejoin="miter" d="M 1.403719 8.059134 C 9.620259 -0.0179556 17.840427 -0.0221889 26.060588 8.057497 " stroke="#000000" stroke-width="4" stroke-opacity="1" stroke-miterlimit="4"/><path stroke-linecap="butt" transform="matrix(0, 0.75, -0.75, 0, 177.613879, 37.502729)" fill="none" stroke-linejoin="miter" d="M 0.00156906 2.000797 L 28.725529 2.000797 " stroke="#000000" stroke-width="4" stroke-opacity="1" stroke-miterlimit="4"/><path stroke-linecap="butt" transform="matrix(0.51326, -0.546868, 0.546868, 0.51326, 170.990648, 34.879202)" fill="none" stroke-linejoin="miter" d="M 1.408016 8.060028 C 9.58992 -0.0190664 17.777268 -0.0174454 25.966495 8.061093 " stroke="#000000" stroke-width="4" stroke-opacity="1" stroke-miterlimit="4"/></svg>